# xmcd
#
# Track frame offsets:
#	182
#	13995
#	28320
#	41715
#	55326
#	69389
#	82389
#	96513
#	107618
#	122719
#	142593
#	161971
#	180034
#	196070
#	210728
#	222148
#	240407
#	256631
#	268633
#	279117
#	292866
#	305050
#	318150
#
# Disc length: 4426 seconds
#
# Revision: 0
# Processed by: cddbd v1.4PL0 Copyright (c) Steve Scherf et al.
# Submitted via: EasyCDDAExtractor 5.0.4.1
#
DISCID=46114817
DTITLE=Art Tatum - Piano Solos 1945-1947
DYEAR=1900
DGENRE=
TTITLE0=Hallelujah
TTITLE1=Poor Butterfly
TTITLE2=Song of the Vagabonds
TTITLE3=Lover
TTITLE4=Memories of You
TTITLE5=Runnin' Wild
TTITLE6=Yesterdays
TTITLE7=Kerry Dance
TTITLE8=Begin the Beguine
TTITLE9=Gershwin Medley: The Man I Love/Summertime/I've Got Plenty of Nuttin'/
TTITLE9=I
TTITLE10=She's Funny That Way
TTITLE11=Lover
TTITLE12=Body and Soul
TTITLE13=I'm Beginning to See the Light
TTITLE14=9:20 Special
TTITLE15=Where or When
TTITLE16=Poor Butterfly
TTITLE17=(Back Home Again In) Indiana
TTITLE18=Song of the Vagabonds
TTITLE19=Smoke Gets in Your Eyes
TTITLE20=Ain't Misbehavin'
TTITLE21=Out of Nowhere
TTITLE22=Cherokee
EXTD=
EXTT0=
EXTT1=
EXTT2=
EXTT3=
EXTT4=
EXTT5=
EXTT6=
EXTT7=
EXTT8=
EXTT9=
EXTT10=
EXTT11=
EXTT12=
EXTT13=
EXTT14=
EXTT15=
EXTT16=
EXTT17=
EXTT18=
EXTT19=
EXTT20=
EXTT21=
EXTT22=
PLAYORDER=
